/* XPM */
static char * door_xpm[] = {
"64 64 5 1",
"  c #3E2723", /* brun foncé */
". c #5D4037", /* brun moyen */
"X c #8D6E63", /* brun clair */
"o c #A1887F", /* beige */
"- c None",
"                                                                ",
"                                                                ",
"            ..............                                      ",
"           .XXXXXXXXXXXXXX.                                     ",
"          .XXXXXXXXXXXXXXXX.                                    ",
"         .XXXXXXXXXXXXXXXXXX.                                   ",
"        .XXXXXXXXXXXXXXXXXXXX.                                  ",
"       .XXXXXXXXXXXXXXXXXXXXXX.                                 ",
"      .XXXXXXXXXXXXXXXXXXXXXXXX.                                ",
"      .XXXXXXXXXXXXXXXXXXXXXXXX.                                ",
"     .XXXXXXXXooXXXXXXXXooXXXXXX.                               ",
"     .XXXXXXXXooXXXXXXXXooXXXXXX.                               ",
"    .XXXXXXXXooXXXXXXXXooXXXXXXXX.                              ",
"    .XXXXXXXXooXXXXXXXXooXXXXXXXX.                              ",
"    .XXXXXXXXXXXXXXXXXXXXXXXXXXXX.                              ",
"    .XXXXXXXXXXXXXXXXXXXXXXXXXXXX.                              ",
"    .XXXXXXXXXXXXXXXXXXXXXXXXXXXX.                              ",
"    .XXXXXXXXXXXXXXXXXXXXXXXXXXXX.                              ",
"    .XXXXXXXXXXXXXXXXXXXXXXXXXXXX.                              ",
"     .XXXXXXXXXXXXXXXXXXXXXXXXXX.                               ",
"     .XXXXXXXXXXXXXXXXXXXXXXXXXX.                               ",
"      .XXXXXXXXXXXXXXXXXXXXXXXX.                                ",
"       .XXXXXXXXXXXXXXXXXXXXXX.                                 ",
"        .XXXXXXXXXXXXXXXXXXXX.                                  ",
"         .XXXXXXXXXXXXXXXXXX.                                   ",
"          .XXXXXXXXXXXXXXXX.                                    ",
"           .XXXXXXXXXXXXXX.                                     ",
"            ..............                                      ",
"                                                                ",
"                                                                ",
"                                                                ",
"                                                                ",
"                                                                ",
"                                                                ",
"                                                                ",
"                                                                ",
"                                                                ",
"                                                                ",
"                                                                ",
"                                                                ",
"                                                                ",
"                                                                ",
"                                                                ",
"                                                                ",
"                                                                ",
"                                                                ",
"                                                                ",
"                                                                ",
"                                                                ",
"                                                                ",
"                                                                ",
"                                                                ",
"                                                                ",
"                                                                ",
"                                                                ",
"                                                                ",
"                                                                ",
"                                                                ",
"                                                                ",
"                                                                ",
"                                                                ",
"                                                                ",
"                                                                ",
"                                                                ",
"                                                                ",
"                                                                ",
"                                                                ",
"                                                                ",
"                                                                ",
"                                                                ",
"                                                                ",
"                                                                ",
"                                                                ",
"                                                                "
};