/* XPM */
static char *rsz_lava21736964323[] = {
/* columns rows colors chars-per-pixel */
"100 100 67 1 ",
"  c #C73405",
". c #C83605",
"X c #C73806",
"o c #CA3B06",
"O c #CC3F08",
"+ c #CC4207",
"@ c #CF4F07",
"# c #CD4409",
"$ c #CF4A09",
"% c #D04707",
"& c #D04A07",
"* c #D0470A",
"= c #D14D0B",
"- c #D3530D",
"; c #D5590F",
": c #D55610",
"> c #D65C11",
", c #D85F14",
"< c #D76314",
"1 c #D86415",
"2 c #D76917",
"3 c #D96817",
"4 c #D76419",
"5 c #DA6618",
"6 c #D7681A",
"7 c #DB6C1A",
"8 c #DC721D",
"9 c #DE791F",
"0 c #DD7621",
"q c #DE7B22",
"w c #E07E25",
"e c #DF8025",
"r c #DF8128",
"t c #E18126",
"y c #E1852A",
"u c #E28B2E",
"i c #E3912F",
"p c #E38F30",
"a c #E59433",
"s c #E89737",
"d c #E69937",
"f c #E69638",
"g c #E79C39",
"h c #E89E3A",
"j c #E7A13B",
"k c #E8A23D",
"l c #E9A541",
"z c #EAAC44",
"x c #ECB047",
"c c #ECB44A",
"v c #EEB94E",
"b c #EFBD51",
"n c #F0BE52",
"m c #EFC052",
"M c #F1C255",
"N c #F1CD5A",
"B c #F3D25E",
"V c #F4D461",
"C c #F6DC67",
"Z c #F6DD68",
"A c #F6E06A",
"S c #F9E36C",
"D c #F9E770",
"F c #FAEB73",
"G c #FCF176",
"H c #FDF579",
"J c #FEF97C",
/* pixels */
"887878,:::::---:--;878878skkkjkdddsdsu99q9t7@;--;-o..O..O***##=-*:=--::=:::,131117877783<2<<<700qq0q",
"888888,:::-::-::--,777878hkkjjkddjdsdi9tw9e8-;;;--ooO O.O**###*-:=:*-::::::,111317878777<333<7q0000q",
"788778,::::::---;-,878778hkhkjkddddddu9t9qt8----:-o.OO..**##*#=-=::=-::::::,111137878783<3<3<70000qq",
"888878,-::::-;--;;;787878hkkjjkdddddsu99w9t8-;;-:-oo.OOOO*#*##*-=:==-::::::5311717787877<<332300q0q0",
"887888,-::;;:::---,787778hkkkhjdsssshu9tqqe8-:--:=O.ooO.##**##=-=:=:*::::::511111788887713<<37q00qw0",
"777778,-:::;:-----,777878hkkkkkdshhshu99qqq8--:-:-O.o...##O###==:*==:::::::,151117777783<313<7080000",
"980w8871,11,,,,,<;,11<<<1tytutue999w9999q0w8------&====*4668860qw00w8::::::,,,,,,9ttttttuyuyuyytytyy",
"9ww8w0731517,,,,,,<;,,,;,tttttt73733389e0q07=-----::::::0qqqqqquupwuw:::::::,,;,,9tttttudfffsayyyyyy",
"w8w80w7151711,,,>,,>>,,;>wttttt877788899e9e8:=:-=--:--::800000wuuwuuw=::::;;>,,>,9tttytusssufiyyyyyy",
"8w8w097117111,,1,1<>>>,;<wtwtqw8777738q99998=---=-::-::-8q00q0wuuwuuw-:::-:,>>>>;9tttttusssiaayyyyyy",
"w8w8097377171,1,,,,;,;,,>wtwwwt8777838q99998-:--:=-::---7q0000wuyuyuw-:::::>>>>>;wttyytussssdayyyyyy",
"8w000w51,1111,,,,1,,,,;,<tytyty8778889eqe9e8$=----::::::000q00wuyuupw=::::;>,,,,,wuttttuiuuuuutyyytw",
"ww0w9w880889511,,1,;;;,;;375557>;;---<<<<<<<::;;:-------600000qywwww0-::-::;>:>:;wututtkMnMnMcjhhhhh",
"wwwwwwtttttt811111,;::-:-=$=@$=oo+ooo+$+$$+=>>>>4:=$-***6806860ww8ww8===-&=::=:::wuuuitnJGGGGScvcvvc",
"00wwwwwwwwwt8,1111,:::::--=-=--+oOO+o#==@@$=>;>>4:==-*==5808880wwwww0::=-=-:::::-wuuuutvGDDDFZxccccc",
"wwwwwwtwttwt8111111-::>---====-+++o+O+=$$$#->>>;-4=$*=-$5860680wwwww0%=--=-::::::wuyuuynGDFFGZxccccc",
"wwwwwywwtt9t81,11,,;;:-:--====-+OOOOO#=*&=&->>>>>>#$-*--4088879qqqqq0---*=-:::::-tauuurvGFFFFCcccccc",
"wwwwqqwttttt811111,;::;;---==--+oOOOO#*=#=*=;>;,>>=$$@**508888qettwt0---:--:::::-0uyuurbHFFFGZcccccc",
"wwwwqwqqt99t7;,,1,;;::---=@$===+OOOOo*=-=-=-<<,,4>>----;,553337877784=---=*>::,;>yssffabSZZZAVcccccc",
"wwwwww773737,;;;;;;&&&-&=$$$$$$+++##+=1>>>;1007w00008888-#=+#$#oOOOoO-$===-51111<kccccccvcccccxcxxxx",
"ewtwqw877737,-:-:::=---=-$$$$$*%+OO#O=,>><,<880088868678-=#===+o+++++-=-*-=<31<1>hcccczcvcvvvcxzcxzc",
"wwwtrt837737,---&:-=&-%-=$$$$#*%##O#O=>>>>;<w80800868878-+=$$=+++++o+===-==<1131<hcczcccvvvcvvxczxcc",
"qeqqqw777737,-::::--%---=$$$$$&%O###%=>;,>,1000000607778-===&=$++++++-====-51<1<1hccxcccvcccccxxczxx",
"wtwtet837777,--:-:--=-=%@$#$$$*O+O#OO=<,>>;,080888868688-%@$$=+o+o+++=-===$4<<11>hccccccvvvvvccxccxx",
"9tqeqe877737,-::---&%-=-=%%%%&&%#O+++-<><>>5w00099878778-=&=&=**#####@=====<31<3<hccccxccxcxxxzxzzcz",
"888888;@-----::::::&:=====%:==-------6rqqwwtpuuuuue9e9e93<11111>,,,,,@=--=-<33<<1akkjjkattyytuiipppa",
"878778;@-$@=-::::::&-=:%%::=-==---;-:6rreeqypppaiu9te9ee71115111<<<<,=-====3<<<2<akjjjkawwwwttiiuuuu",
"888888:------::-::::%:=::===&-=------6rreeeypupuiute9ee97111111><<<<;-==-==33<2<<aljkjkiwwwyttiuaaua",
"878788;--=-=:::::::-=-:&%:--*-=------6rrttwyipiiiut9t9te31115111,<<<>-=-==-<<2<<<akkjjkawwwwwyiuuuiu",
"888788;-=:=-:::-:::&==%:-*%--==:--;-@6rrtteyiupuuuetq99t3131151111<1>======32<2<<akhjjkiwwwtwtiiuiuu",
"888888;-:----::-:::%=%:%-*-**=------@7rrwtttipiiiie9ttqt7111111,1111>======3226<3akkkkzawwttttiuaaua",
"222727;@$--$->:,:::---&:------=,76677qiuuuuuuyuyyy3113111,,,,,7tqwqww787787-:;-::7w8w8w8787778ttwqtq",
"6<3222;--@--;>;>>;>--@---------898888eiiuauuyyyyyt<,>>>>>>>>>;wuuuyurqqqqqq@=-===4<<3<<3311117999900",
"327322;----@;>>>><;----@---:-:=588877eiiauiuyyyyyy<;><<<>><>>;8yrurur00qqqq-=---=4737773333317qqw990",
"727626:------>;>>>;@-----@:=:--588688qipuiiuyuyyyt<,<>><>><>,:wyruruy0qq9q0-=-=--4635333153117q99ww0",
"32<222>@-@--;>>>>>;---------:-:588886eipiuiuyyyyut<;><>>>>>>,:0yuruyyqqqqe0--=--=4623733313337q9908w",
"733766;--@--->>>;;;--=-@-@--:*=577788qiuiuiuyyyyyy3><<>1>,:,,:8yyyyye9e9999-@---=<322323313117e99qqq",
"<22<24:-;-;-><<<2<<;>>>>>,><,4,wyyyeeaggdjhatqttww-=-=-=,1551>wfaaffieeeeee;@@===3737377888888888888",
"<<<<2<>:;;;;<677222<11155877054pjdgddkzzxxkd788887++OOOO,77775pzllzzgyyyrrr@$$$$&5877878t99t99733338",
"<<<3<4>:;;;;<7<<222<11<,1877777pddaaajzlkkxh898887*+##+O177575yzllkkgeurrrr@$$=$*1877778q9e9q9777773",
"<11111;;::>:,62722311<1<4064064fsddiajkkxcxj888808#####O,75775uzllllgryrrye=$$=$*5778338e9e999777777",
"<11111,;>:::463<2231<<1<4660064pddddakkxkkkj889888#oOO#O577775ullkklgruryyt=$$$=#3777779qqq9w9577777",
"111111;->:::466737<111114666446pdaidakxkkkkk788806###O#o,77785uzzllzkrrryyt==@$$=5878770t9tew9577777",
"<<1<<1>;>>::>46433<<1>1>4606000fkjjjkkxxcxxk890900#O###o,55,44wffffdp0q00q0$####*,136<67888888131111",
"4,<,<1,-:>:>::::::;-----:qrrwq0cmvbbbcvcvvmkeettyw*O####*#=***,733731===-==XXXXX.*==-$-$=-==$-------",
",,,,>1,:::::>-,::;;-;--;:00qq00lmvvvbcccccmktyttww*O####$==-**,077883=-----X ooX.$:=-:$:------>--;-;",
",,,,,,:::::>:::::::-;-;-:0q0qq0cbbvvbvccvcvketttww######$=-***,738773==-=-=oXoXX.$-----==--=------;-",
",4,5,,>::>:::>,:;;;-:-:-:0rrqq0lbccbvcccccvkttttyw######$=**-*,78378<=----=X ooXo$-=$-$:-==-$--:-;;;",
",4,><,>:::::::::;>---;;-;wqqqqqcnnvnvvcvvcmketttyw*O####$$====,877882---===oXXXX.=--=--=--=:=-:----;",
"<>4<<<>,>>,>:>>>>>>-----;8q0qq0lvccnvvxxkccketeeww*O####$$$$=#,67623<=@---=OOOXOo====-=-=--===;-;---",
"777877yypuuuw566772------:--:=#qwwuwwusudaiu378777**$+$##++++OO#++++$----@-$=====+o+OO+#**&=&-,;;,;,",
"888888yipyupw686332---@--=$$=:#0uwwwwypuuiit777777*+#$+#++++OOOOOOoO+--@------=--+ooOOO+==&&*-,;,;,;",
"887887yuuyupw577771@;@---$=-===qwwwutupuiuiy778777*+=#+$+o+++++OOOOo+:-@-@-@@-=--+OOOo+#*==$&-,;;;,;",
"788888yuuuuu0477331--@---@====#0uwwwwuuuuuiy787777**#####+++O+oOOO+O#----------=-+XOo+o+=##=&=,:;,;,",
"887788euuuupw777382-@;-@-====$$qpwwwwyuuuuit777783=+++#$+++o+++OOO+o#:---;-@-----+oO+oo+=$==%=,;,;;;",
"788877uiyuyuw15532<-@---@@===-=qwwwftysppisy778783=+$$$#++++++oOOOOO#$@@@@@$$$$==+Xoooo+$=+=%->>;;,;",
"tyttyrpaaaaapuuuyit><<<>,$$$$$#:444,,5777766-:--:-OOXOOOXX.XX.+$$$$#,hfggdgaaaaag>#$=$=======:089889",
"uyuppraaaffaffafddu333336=###$#=:****:,,,>,:%*+$##  .  X..... O=$$$#4bvvvvvcccxxv6$--==--:===:tww9t9",
"yyuryraaaaafidaaadu<<<<<4$#=$##-:=::::,,,4<:*=$=$#OXXXX.......O$$$@#4cccccczlzzzz4$==========;w9999t",
"yuyuyuaaaafadaadadu<33<35##*#=#-=:=:-:,,,,,>*==+=$.X.XXX......o=$$$#4bccccczzzkzc6$-==-======:w99t9t",
"upyuuuaaaaaaasdaadu<33<36=#****--=--=:4,,>4>$$$$=#O...OX......O&$$@#2mccccczzzzzx6&===:===--&;w9999t",
"yyyyuraafafsaiaaady<<<<<1###****:---::4,<4<>$$$$$$.... .......O=$$$+<cccccczzzzzz3&--=====-=-;wwt9t9",
"pypuriaaiaiihkkkkka277777====**===-==-==$-=#+OooOooo.OO.o.ooo.#-:-:@6Mmmmmmzzxzzc6+--=======%;999999",
"ppppaaruuuiujcxxxck888887=======****=O  X.o.      OOooOoO*+++O-<>><;qVNNNNNcxxxxc6=-====%=%*%:998899",
"ppriipppaiiigcxzxxg687878@====&==$==$+OO..O.      .OOoooOo+o++=>>>,-wBNNNNNxzxxzc6@--$-=$$$=#:08w7ww",
"ppppiipparargcxzxcj888888@&===&=$&$$=+...Oo.      OOOOOOO++++o-<>>,;0BNNNNNxxxxzc6$==-=$$==$$-007w78",
"uraiuppuuuiugxzxzcg087887-===&=&==$==+oO.OoX       O.OOoO+++++=>>>>:wBNNNNNczxxzc6$=$$-$$=$=$:088808",
"paaiaiiiaiaikvcccvl688888@@&&==*&++$++o...XX      ..oOoOO+OO+o->><<;wVBNBBNcccccc6=-:$-$$$=$$:0008ww",
"rrrqrqrrerreagggfga776737>;;,,>>><>>,=OOOOOO  .  .O+OOOOO#####-;;;>-7ncccccgddgdg4$@$$$@$$=#$-777777",
"====@@:>;;;;:>>:>>>>;;;,,yuuyyusjhhgk0%-=-=* ... o##**#%=:===-$+#$++=555223;;;;;;#ooOOo#=$==$$$$=***",
"=--=--:>>>>><>,4<>4><<>>1tyyyytsgdsskw%====* . ...#$#++*===-==@#$###-777772<>>;>>#OOOOo#$$=$#===&===",
"-=--=->>>>>>><,<<<,>>;>>,tyyyyyfgggsh8%====* .....#$+=+#=======##$**-835272>>><>>$ooooo#=$*=====-&-=",
"-:=:-$:>>>>;,,,,,,,>>>>>,yuyyyysddjdj9%====*......+#$#$#===-===#$$##-667777>;>;;>#o+o+o+=+=$$$==-&==",
"====-@>>>>>>><<,,,,,<>>>,yyyyytadsddj8&====# .....$++++#=-====&*##$#@777773>>><;<+oo+o++$==+$==&==&=",
"--:---:>;<;;,,,,,,,>>>>>,yuyyyushhhsk0&===-$.....o#$+$$+=-=-===*====-722333>>;::;#o+ooo+==$========-",
">>:4><;;;:;;:$=-:$->:>:>>shhkhhxvxvxvu@;;---+o+oo+==-===:>>>,,1w00007-;-;--+oooOooXoooo$------131111",
"><<>>>;--:::-===$--:->:-;hjjkkhkvvvvnu-::-:-++++++==-===>>>>>,7w0qe98@--@--+Xo.ooo.ooo.#;@@---533335",
">>>>>>;::--:-=-=-$-:-,>:>shjhhkcvvccny=:;::-o+++++====-=,>;,>;7w0q998@;@@-@XXXooooooooX+------131311",
"><>><>>::-::-===-=-:;;;;>hjjjkkkvxvvnt=::::=++++o+=-==-=->;>>,5900q98@;----oooXOXO.OooX+-----;531535",
">>>>>>::>::>:==-=$-:-;;;;hjjjkkcvvxxnu-::::-o++O++==-===,,,>>,7wqq9e8---@;-ooXoo..OXXoo$--@--;533335",
">:>:,:--:--::$$-=$-:::::>gkkkkkcvvmvmu@;;::-OOOO++===-@@:,,;,,7w999e8------OooooO.O.XoX*::--@>111111",
"gfggfgwww0ww7-:::::61351100880809999w>+#%***####+#:>;;;;,1,1>,7yerer0@-@@--&***%##O#OOO*>:->-7fsssss",
"ccccccayyyyu8-::::,673735<<<<<1>;<>;,=oOoOoO#**###>;;>>>1111118yyyriq@-----===-=-*##**O->>>>;8zzzzzz",
"zzzxxzpyyytu8-::::>73<26333<13331111<-OOOOOO#O####;<>;>;,1<111wyyrrrq-----:=====**####O-,>>>;7lzzzkz",
"czczxxpyyyyu8->:::>6677<33<3<33<<<<<<-oOOOOO%#####>>>>>>,1111<8yeueuq---@--=====-#**O*O->;>>;8zlkzzk",
"zczcxzayyyyu8;>:::>6623733<<<<<<<<,1<-oOOOO+######>>;;>>,1111<8yyeey0--@---@---=-*O#*OO-,;,>:7zlzkkz",
"czzczcptytty8-;;:::437<63<3<<33<<33<<-oOOOO+######>>,>,;11113,0uyyuuq@@----&&&&&$#OOOOO=,,,;:8zzkxxk",
"cccccclhhkklr<77680q00qqq<<<<<<;-;--;$XO.O.OOO#OO#=:----;,;;>><788787>>>;>;787776,::::::;;;;-7hshshh",
"bvvvvvnnnnnMh0t9eqraaaiau<,;>,,=+=$$&+..XXXXooooOO#$$$$$=-====->;;-;;3<3113uuuiui711111;@;---1uuuuuu",
"vvvvvvvvvvcnd9e99qeiiriiu<>>>>;-$$&=@+ OoooX++oOoO$@=$$===--=:>><;<;<<<<1,3tyyyyy711111,-;::-,iupppp",
"vvnvvvvnvvvng9qqqqeiiirau<>>>>;-$==+=+.XXoXoooo+oO$$$$=$=:=-:-:>;<;;,1<1117yuyuuy811111,---;:1ippppp",
"vvvvvvvvvvvng8qqe9rariaau<>><>>-$$==$+oXo.Xoo++oo+$$$$$$=--===:>;;;<,111117yuyyyy811111,-;;--1ppuppp",
"nnnnnnnvnnvMh89w9qyuuuiru>;>;;>=*$*$$o.....XOOXooo$====#=--:--:>,,,;,,1,,11yuyutu7,,111>-:::-,spsiii",
"lzlzzzzzzzlxa8wwq9eaaiaap737337>-----=O#O++OOOOO+O$##$#$====-$::;;;:,377777yuuiyi9778851-:::-,twtytt",
"000000w0900w080808tjjgjjguyyuyy835377,:;->:-######OOO+#+#=$$$$::;-;-1tqtt9tdidsssuttttt8-;:::,111,,1",
"000008www0ww0808w8qjjggghyyyyyy833337>-----=#########O##$=$$$$=>-::;,qtqtttisiissutttty5:;:::,1111,1",
"00q000w0qqqqq00070whggjjgueyyyu8<3333<-----=%O*O#O#O##O#**$$=#:::::-1wwwwwtaaasaiyttyty8;;;;:;111111",
"qq0qw00wqqqqq008w8whgggjgryuyyy833333<--;-;=%***###O#O##**$$$$=:::::,wwww9tasasihytyttt8;;;;:>111111",
"w00q00qqqqqq000008qkkkggjyyyyyy8<7723<---;;-O#O**#O*#O#O=$=$=$::::::,wwwwwtasdidsytyyyy8;::::>111111",
"00q0q0qqqqqq000700rggggjhuyyyyy8333371--;--=##*O##OOO##O#=$$$#->:::=1w9wwwtaiidisytytty8:>::;>1,1111"
};
