/* XPM */
static char *c61525b15e5d4946c82d54f485539febMAONAYc3Kwd07JiN[] = {
/* columns rows colors chars-per-pixel */
"80 80 2 1 ",
"  c #00B7EF",
". c #99D9EA",
/* pixels */
"................................................................................",
"................................................................................",
"................................................................................",
"................................................................................",
"................................................................................",
".....                           ..................                         .....",
".....                           ..................                         .....",
".....                           ..................                         .....",
".....                           ..................                         .....",
".....                           ..................                         .....",
".....                           ..................                         .....",
".....                               ..........                             .....",
".....                               ..........                             .....",
".....                               ..........                             .....",
".....                               ..........                             .....",
".....                               ..........                             .....",
".....                               ..........                             .....",
".....                               ..........                             .....",
".....                               ..........                             .....",
".....                               ..........                             .....",
".....                               ..........                             .....",
".....                               ..........                             .....",
".....                               ..........                             .....",
".....                               ..........                             .....",
".....                               ..........                             .....",
".....                               ..........                             .....",
".....                               ..........                             .....",
".....                               ..........                             .....",
".....                               ..........                             .....",
".....                               ..........                             .....",
".....                               ..........                             .....",
".....                               ..........                             .....",
".....                               ..........                             .....",
".....                               ..........                             .....",
".....                               ..........                             .....",
".....                               ..........                             .....",
".....                               ..........                             .....",
".....                               ..........                             .....",
".....                               ..........                             .....",
".....                               ..........                             .....",
".....                               ..........                             .....",
".....                               ..........                             .....",
".....                               ..........                             .....",
".....                               ..........                             .....",
".....                               ..........                             .....",
".....                               ..........                             .....",
".....                               ..........                             .....",
".....                               ..........                             .....",
".....                               ..........                             .....",
".....                               ..........                             .....",
".....                               ..........                             .....",
".....                               ..........                             .....",
".....                               ..........                             .....",
".....                               ..........                             .....",
".....                               ..........                             .....",
".....                               ..........                             .....",
".....                               ..........                             .....",
".....                               ..........                             .....",
".....                               ..........                             .....",
".....                               ..........                             .....",
".....                               ..........                             .....",
".....                               ..........                             .....",
".....                               ..........                             .....",
".....                               ..........                             .....",
".....                               ..........                             .....",
".....                               ..........                             .....",
".....                               ..........                             .....",
".....                               ..........                             .....",
".....                               ..........                             .....",
".....                               ..........                             .....",
".....                               ..........                             .....",
".....                               ..........                             .....",
".....                               ..........                             .....",
".....                               ..........                             .....",
".....                               ..........                             .....",
"................................................................................",
"................................................................................",
"................................................................................",
"................................................................................",
"................................................................................"
};
