/* XPM */
static char *rsz_1rsz_pixil_frame_01736987062[] = {
/* columns rows colors chars-per-pixel */
"80 80 3 1 ",
"  c #99D9EA",
". c #00B7EF",
"X c white",
/* pixels */
"                                                                                ",
"                                                                                ",
"                                                                                ",
"                                                                                ",
"                                                                                ",
"     .............................          ...............................     ",
"     .............................          ...............................     ",
"     .............................          ...............................     ",
"     .............................          ...............................     ",
"     .............................          ...............................     ",
"     .............................          ...............................     ",
"     .............................          ...............................     ",
"     .............................          ...............................     ",
"     .............................          ...............................     ",
"     .............................          ...............................     ",
"     .............................          ...............................     ",
"     .............................          ...............................     ",
"     .............................          ...............................     ",
"     .............................          ...............................     ",
"     .............................          ...............................     ",
"     .............................          ...............................     ",
"     .............................          ...............................     ",
"     .............................          ...............................     ",
"     .............................          ...............................     ",
"     .............................          ...............................     ",
"     .............................          ...............................     ",
"     .............................          ...............................     ",
"     .............................          ...............................     ",
"     .............................          ...............................     ",
"     .............................          ...............................     ",
"     .............................          ...............................     ",
"     .............................          ...............................     ",
"     .............................          ...............................     ",
"     .............................          ...............................     ",
"     .............................          ...............................     ",
"     .............................          ...............................     ",
"     .............................          ...............................     ",
"     .............................          ...............................     ",
"     .............................          ...............................     ",
"     .............................          ...............................     ",
"     .............................          ...............................     ",
"     .............................          ...............................     ",
"     .............................          ...............................     ",
"     .............................          ...............................     ",
"     .............................          ...............................     ",
"     .............................          ...............................     ",
"     .............................          ...............................     ",
"     .............................          ...............................     ",
"     .............................          ...............................     ",
"     .............................          ...............................     ",
"     .............................          ...............................     ",
"     .............................          ...............................     ",
"     .............................          ...............................     ",
"     .............................          ...............................     ",
"     .............................          ...............................     ",
"     .............................          ...............................     ",
"     .............................          ...............................     ",
"     .............................          ...............................     ",
"     .............................          ...............................     ",
"     .............................          ...............................     ",
"     .............................          ...............................     ",
"     .............................          ...............................     ",
"     .............................          ...............................     ",
"     .............................          ...............................     ",
"     .............................          ...............................     ",
"     .............................          ...............................     ",
"     .............................          ...............................     ",
"     .............................          ...............................     ",
"     .............................          ...............................     ",
"     .........................                  ...........................     ",
"     .........................                  ...........................     ",
"     .........................                  ...........................     ",
"     .........................                  ...........................     ",
"     .........................                  ...........................     ",
"     .........................                  ...........................     ",
"                                                                                ",
"                                                                                ",
"                                                                                ",
"                                                                                ",
"                                                                                "
};
